<svg width="82" height="54" viewBox="0 0 82 54" fill="none" xmlns="http://www.w3.org/2000/svg">
  <g filter="url(#a)">
    <path fill-rule="evenodd" clip-rule="evenodd" d="M17 5c-.5523 0-1 .4477-1 1v10l-7 7 7 7v10c0 .5523.4477 1 1 1h55c.5523 0 1-.4477 1-1V6c0-.5523-.4477-1-1-1H17Z" fill="#fff"/>
    <path d="m16 16 .3536.3536.1464-.1465V16H16Zm-7 7-.3536-.3536L8.293 23l.3536.3536L9 23Zm7 7h.5v-.2071l-.1464-.1465L16 30Zm.5-24a.5.5 0 0 1 .5-.5v-1c-.8284 0-1.5.6716-1.5 1.5h1Zm0 10V6h-1v10h1Zm-7.1464 7.3536 7-7-.7072-.7072-7 7 .7072.7072Zm7 6.2928-7-7-.7072.7072 7 7 .7072-.7072ZM16.5 40V30h-1v10h1Zm.5.5a.5.5 0 0 1-.5-.5h-1c0 .8284.6716 1.5 1.5 1.5v-1Zm55 0H17v1h55v-1Zm.5-.5a.5.5 0 0 1-.5.5v1c.8284 0 1.5-.6716 1.5-1.5h-1Zm0-34v34h1V6h-1Zm-.5-.5a.5.5 0 0 1 .5.5h1c0-.8284-.6716-1.5-1.5-1.5v1Zm-55 0h55v-1H17v1Z" fill="#B9B9B9"/>
  </g>
  <defs>
    <filter id="a" x=".2929" y=".5" width="81.2071" height="53" filterUnits="userSpaceOnUse" color-interpolation-filters="sRGB">
      <feFlood flood-opacity="0" result="BackgroundImageFix"/>
      <feColorMatrix in="SourceAlpha" values="0 0 0 0 0 0 0 0 0 0 0 0 0 0 0 0 0 0 127 0" result="hardAlpha"/>
      <feOffset dy="4"/>
      <feGaussianBlur stdDeviation="4"/>
      <feColorMatrix values="0 0 0 0 0.7625 0 0 0 0 0.7625 0 0 0 0 0.7625 0 0 0 0.2 0"/>
      <feBlend in2="BackgroundImageFix" result="effect1_dropShadow_884_2849"/>
      <feBlend in="SourceGraphic" in2="effect1_dropShadow_884_2849" result="shape"/>
    </filter>
  </defs>
</svg>
